REM DIRINDEX 1\6,1\2\7,1\2\8,1\2\9,1\3\10,1\3\11,1\4\12,1\4\13,1\4\14,1\5\15,1\5\16,1\5\17
REM DIRNAME folder01,folder02,folder03,folder04,folder05,folder06,folder07,folder08,folder09,folder10,folder11,folder12,folder13,folder14,folder15,folder16,folder17
TITLE ""
FILE "P2Q_j_1128-1141.mp3" MP3
  TRACK 01 AUDIO
    TITLE "12:cjc040_0128"
    INDEX 01 00:00:00
  TRACK 02 AUDIO
    TITLE "0:"
    INDEX 01 00:01:66
  TRACK 03 AUDIO
    TITLE "13:cjc040_0129"
    INDEX 01 00:02:49
  TRACK 04 AUDIO
    TITLE "0:"
    INDEX 01 00:04:52
  TRACK 05 AUDIO
    TITLE "14:cjc040_0130"
    INDEX 01 00:05:26
  TRACK 06 AUDIO
    TITLE "0:"
    INDEX 01 00:12:12
  TRACK 07 AUDIO
    TITLE "12:cjc040_0131"
    INDEX 01 00:12:67
  TRACK 08 AUDIO
    TITLE "0:"
    INDEX 01 00:14:39
  TRACK 09 AUDIO
    TITLE "13:cjc040_0132"
    INDEX 01 00:15:23
  TRACK 10 AUDIO
    TITLE "0:"
    INDEX 01 00:17:02
  TRACK 11 AUDIO
    TITLE "14:cjc040_0133"
    INDEX 01 00:17:57
  TRACK 12 AUDIO
    TITLE "0:"
    INDEX 01 00:24:74
  TRACK 13 AUDIO
    TITLE "12:cjc040_0134"
    INDEX 01 00:25:54
  TRACK 14 AUDIO
    TITLE "0:"
    INDEX 01 00:27:22
  TRACK 15 AUDIO
    TITLE "13:cjc040_0135"
    INDEX 01 00:28:00
  TRACK 16 AUDIO
    TITLE "0:"
    INDEX 01 00:30:28
  TRACK 17 AUDIO
    TITLE "14:cjc040_0136"
    INDEX 01 00:31:04
  TRACK 18 AUDIO
    TITLE "0:"
    INDEX 01 00:35:43
  TRACK 19 AUDIO
    TITLE "12:cjc040_0137"
    INDEX 01 00:36:23
  TRACK 20 AUDIO
    TITLE "0:"
    INDEX 01 00:37:61
  TRACK 21 AUDIO
    TITLE "13:cjc040_0138"
    INDEX 01 00:38:35
  TRACK 22 AUDIO
    TITLE "0:"
    INDEX 01 00:39:60
  TRACK 23 AUDIO
    TITLE "14:cjc040_0139"
    INDEX 01 00:40:34
  TRACK 24 AUDIO
    TITLE "0:"
    INDEX 01 00:45:41
  TRACK 25 AUDIO
    TITLE "12:cjc040_0140"
    INDEX 01 00:46:17
  TRACK 26 AUDIO
    TITLE "0:"
    INDEX 01 00:47:52
  TRACK 27 AUDIO
    TITLE "13:cjc040_0141"
    INDEX 01 00:48:38
  TRACK 28 AUDIO
    TITLE "0:"
    INDEX 01 00:52:20
  TRACK 29 AUDIO
    TITLE "14:cjc040_0142"
    INDEX 01 00:52:73
  TRACK 30 AUDIO
    TITLE "0:"
    INDEX 01 00:58:13
  TRACK 31 AUDIO
    TITLE "12:cjc040_0143"
    INDEX 01 00:58:67
  TRACK 32 AUDIO
    TITLE "0:"
    INDEX 01 01:00:39
  TRACK 33 AUDIO
    TITLE "13:cjc040_0144"
    INDEX 01 01:01:19
  TRACK 34 AUDIO
    TITLE "0:"
    INDEX 01 01:02:40
  TRACK 35 AUDIO
    TITLE "14:cjc040_0145"
    INDEX 01 01:03:12
  TRACK 36 AUDIO
    TITLE "0:"
    INDEX 01 01:07:57
  TRACK 37 AUDIO
    TITLE "12:cjc040_0146"
    INDEX 01 01:08:36
  TRACK 38 AUDIO
    TITLE "0:"
    INDEX 01 01:10:04
  TRACK 39 AUDIO
    TITLE "13:cjc040_0147"
    INDEX 01 01:10:57
  TRACK 40 AUDIO
    TITLE "0:"
    INDEX 01 01:12:03
  TRACK 41 AUDIO
    TITLE "14:cjc040_0148"
    INDEX 01 01:12:56
  TRACK 42 AUDIO
    TITLE "0:"
    INDEX 01 01:17:61
  TRACK 43 AUDIO
    TITLE "12:cjc040_0149"
    INDEX 01 01:18:43
  TRACK 44 AUDIO
    TITLE "0:"
    INDEX 01 01:19:64
  TRACK 45 AUDIO
    TITLE "13:cjc040_0150"
    INDEX 01 01:20:46
  TRACK 46 AUDIO
    TITLE "0:"
    INDEX 01 01:21:69
  TRACK 47 AUDIO
    TITLE "14:cjc040_0151"
    INDEX 01 01:22:42
  TRACK 48 AUDIO
    TITLE "0:"
    INDEX 01 01:28:14
  TRACK 49 AUDIO
    TITLE "12:cjc040_0152"
    INDEX 01 01:28:65
  TRACK 50 AUDIO
    TITLE "0:"
    INDEX 01 01:30:22
  TRACK 51 AUDIO
    TITLE "13:cjc040_0153"
    INDEX 01 01:31:00
  TRACK 52 AUDIO
    TITLE "0:"
    INDEX 01 01:32:23
  TRACK 53 AUDIO
    TITLE "14:cjc040_0154"
    INDEX 01 01:32:74
  TRACK 54 AUDIO
    TITLE "0:"
    INDEX 01 01:38:18
  TRACK 55 AUDIO
    TITLE "12:cjc040_0155"
    INDEX 01 01:39:00
  TRACK 56 AUDIO
    TITLE "0:"
    INDEX 01 01:40:35
  TRACK 57 AUDIO
    TITLE "13:cjc040_0156"
    INDEX 01 01:41:14
  TRACK 58 AUDIO
    TITLE "0:"
    INDEX 01 01:42:37
  TRACK 59 AUDIO
    TITLE "14:cjc040_0157"
    INDEX 01 01:43:13
  TRACK 60 AUDIO
    TITLE "0:"
    INDEX 01 01:46:41
  TRACK 61 AUDIO
    TITLE "12:cjc040_0158"
    INDEX 01 01:47:21
  TRACK 62 AUDIO
    TITLE "0:"
    INDEX 01 01:49:04
  TRACK 63 AUDIO
    TITLE "13:cjc040_0159"
    INDEX 01 01:49:59
  TRACK 64 AUDIO
    TITLE "0:"
    INDEX 01 01:51:64
  TRACK 65 AUDIO
    TITLE "14:cjc040_0160"
    INDEX 01 01:52:44
  TRACK 66 AUDIO
    TITLE "0:"
    INDEX 01 01:58:64
  TRACK 67 AUDIO
    TITLE "12:cjc040_0161"
    INDEX 01 01:59:48
  TRACK 68 AUDIO
    TITLE "0:"
    INDEX 01 02:00:71
  TRACK 69 AUDIO
    TITLE "13:cjc040_0162"
    INDEX 01 02:01:54
  TRACK 70 AUDIO
    TITLE "0:"
    INDEX 01 02:03:39
  TRACK 71 AUDIO
    TITLE "14:cjc040_0163"
    INDEX 01 02:04:12
  TRACK 72 AUDIO
    TITLE "0:"
    INDEX 01 02:08:07
  TRACK 73 AUDIO
    TITLE "12:cjc040_0164"
    INDEX 01 02:08:62
  TRACK 74 AUDIO
    TITLE "0:"
    INDEX 01 02:10:49
  TRACK 75 AUDIO
    TITLE "13:cjc040_0165"
    INDEX 01 02:11:29
  TRACK 76 AUDIO
    TITLE "0:"
    INDEX 01 02:13:30
  TRACK 77 AUDIO
    TITLE "14:cjc040_0166"
    INDEX 01 02:14:08
  TRACK 78 AUDIO
    TITLE "0:"
    INDEX 01 02:18:65
  TRACK 79 AUDIO
    TITLE "12:cjc040_0167"
    INDEX 01 02:19:46
  TRACK 80 AUDIO
    TITLE "0:"
    INDEX 01 02:21:00
  TRACK 81 AUDIO
    TITLE "13:cjc040_0168"
    INDEX 01 02:21:57
  TRACK 82 AUDIO
    TITLE "0:"
    INDEX 01 02:23:58
  TRACK 83 AUDIO
    TITLE "14:cjc040_0169"
    INDEX 01 02:24:34
  TRACK 84 AUDIO
    TITLE "0:"
    INDEX 01 02:30:38
